<svg id="Layer_1" enable-background="new 0 0 464 464" height="512" viewBox="0 0 464 464" width="512" xmlns="http://www.w3.org/2000/svg"><path d="m464 93.388v39c0 26.51-21.49 48-48 48h-9v75c0 96.65-78.35 175-175 175-96.64 0-175-78.353-175-175v-75h-9c-26.51 0-48-21.49-48-48v-39c0-8.84 7.16-16 16-16h432c8.84 0 16 7.16 16 16z" fill="#d6f4fc"/><path d="m464 93.388v39c0 26.51-21.49 48-48 48-8.482 0-374.205 0-368 0-26.51 0-48-21.49-48-48v-39c0-8.837 7.163-16 16-16h432c8.837 0 16 7.163 16 16z" fill="#42434d"/><path d="m57 180.388h350v47.5h-350z" fill="#fe4f60"/><path d="m134.429 349.487c13.107 20.509-14.87 42.143-31.344 24.226-28.484-30.979-46.085-72.366-46.085-118.325v-75h50v75c0 34.644 10.067 66.93 27.429 94.099z" fill="#e8f8fc"/><path d="m464 93.388v8c0 8.837-7.163 16-16 16h-372.732c-18.362 0-35.256 14.328-35.281 36.175-.016 14.675-18.192 21.63-27.924 10.645-7.506-8.471-12.063-19.614-12.063-31.82v-39c0-8.837 7.163-16 16-16h432c8.837 0 16 7.163 16 16z" fill="#4d4e59"/><path d="m232 287.798c23.513.009 42.025 20.875 40.49 43.47-1.346 19.817-17.793 36.264-37.61 37.61-22.595 1.535-43.461-16.977-43.47-40.49-.009-22.13 18.46-40.599 40.59-40.59z" fill="#42434d"/><path d="m177 136.388h-14c-4.418 0-8-3.582-8-8s3.582-8 8-8h14c4.418 0 8 3.582 8 8s-3.582 8-8 8z" fill="#fff"/><path d="m107 136.388h-14c-4.418 0-8-3.582-8-8s3.582-8 8-8h14c4.418 0 8 3.582 8 8s-3.582 8-8 8z" fill="#fff"/><g fill="#9fe2f5"><path d="m403.94 138.188c-5.854 5.834-15.341 5.819-21.2 0-5.889-5.889-5.851-15.389-.01-21.23 5.87-5.84 15.38-5.83 21.21 0 5.855 5.834 5.889 15.341 0 21.23z"/><path d="m356.575 102.117c-3.125-3.124-3.126-8.189-.003-11.314 20.321-20.332 53.215-20.332 73.545-.001 3.125 3.124 3.125 8.189 0 11.313-3.124 3.124-8.189 3.124-11.313 0-14.071-14.071-36.842-14.082-50.915-.001-3.124 3.124-8.189 3.126-11.314.003z"/><path d="m448.503 72.414c-30.415-30.414-79.902-30.414-110.316 0-3.124 3.125-8.189 3.125-11.313 0-3.125-3.124-3.125-8.189 0-11.313 36.652-36.651 96.292-36.652 132.944 0 3.125 3.124 3.125 8.189 0 11.313-3.126 3.125-8.19 3.125-11.315 0z"/></g><path d="m57 180.388h50v47.5h-50z" fill="#ff6d7a"/><path d="m57 180.388h350v23.75h-350z" fill="#e84857"/><path d="m236.898 310.776c-10.056 4.206-18.301 12.41-22.527 22.458-4.976 11.833-22.953 9.139-22.962-4.846-.01-22.396 18.899-41.018 41.336-40.583 12.99.252 16.139 17.958 4.153 22.971z" fill="#4d4e59"/></svg>