<svg height="469pt" viewBox="-16 0 469 469.366" width="469pt" xmlns="http://www.w3.org/2000/svg"><path d="m139.285156 148.261719h199.679688v205.976562h-199.679688zm0 0" fill="#f9dd9d"/><path d="m338.964844 358.238281h-199.679688c-2.207031 0-4-1.792969-4-4v-205.976562c0-2.207031 1.792969-4 4-4h199.679688c2.207031 0 4 1.792969 4 4v205.976562c0 2.207031-1.792969 4-4 4zm-195.679688-8h191.679688v-197.976562h-191.679688zm0 0" fill="#63312d"/><path d="m98.996094 148.261719h199.679687v205.976562h-199.679687zm0 0" fill="#f9dd9d"/><path d="m114.996094 164.261719h183.679687v-16h-199.679687v205.976562h16zm0 0" fill="#ffeecf"/><path d="m298.675781 358.238281h-199.679687c-2.207032 0-4-1.792969-4-4v-205.976562c0-2.207031 1.792968-4 4-4h199.679687c2.210938 0 4 1.792969 4 4v205.976562c0 2.207031-1.789062 4-4 4zm-195.679687-8h191.679687v-197.976562h-191.679687zm0 0" fill="#63312d"/><path d="m224.8125 214.269531-8.671875 6.695313-8.679687-6.695313-8.664063 6.695313-8.640625-6.695313-8.65625 6.695313-8.640625-6.695313v-66.007812h51.953125zm0 0" fill="#f8f3f3"/><path d="m198.804688 224.964844c-.863282 0-1.726563-.277344-2.449219-.832032l-6.191407-4.796874-6.207031 4.796874c-1.457031 1.121094-3.472656 1.113282-4.886719 0l-8.648437-6.6875c-.984375-.757812-1.550781-1.925781-1.550781-3.167968v-66.007813c0-2.207031 1.789062-4 4-4h51.957031c2.210937 0 4 1.792969 4 4v66.007813c0 1.242187-.574219 2.410156-1.550781 3.167968l-8.679688 6.6875c-1.441406 1.113282-3.457031 1.113282-4.886718 0l-6.226563-4.808593-6.214844 4.800781c-.746093.5625-1.609375.839844-2.464843.839844zm8.664062-14.695313c.855469 0 1.726562.28125 2.449219.832031l6.222656 4.808594 4.679687-3.609375v-60.039062h-43.960937v60.046875l4.648437 3.59375 6.210938-4.800782c1.4375-1.128906 3.453125-1.121093 4.886719 0l6.191406 4.800782 6.214844-4.800782c.730469-.550781 1.59375-.832031 2.457031-.832031zm0 0" fill="#63312d"/><path d="m241.53125 36.75 15.890625-15.886719c3.855469-3.855469 3.855469-10.121093 0-13.976562s-10.121094-3.855469-13.976563 0l-31.558593 31.558593c-3.859375 3.855469-3.859375 10.121094 0 13.976563l31.558593 31.558594c3.855469 3.859375 10.121094 3.859375 13.976563 0 3.855469-3.855469 3.855469-10.117188 0-13.972657l-12.777344-12.777343c101.664063 13.503906 178.9375 105.359375 168.410157 212.800781-9.121094 93.125-85.21875 167.621094-178.496094 174.941406-111.402344 8.738282-205.363282-76.6875-210.59375-184.992187-.253906-5.292969-4.457032-9.527344-9.757813-9.527344h-.242187c-5.488282 0-10.023438 4.519531-9.769532 10 5.640626 122.570313 114.457032 218.671875 241.394532 203.273437 100.953125-12.25 178.007812-91.90625 187.261718-193.167968 10.945313-119.710938-76.972656-221.769532-191.320312-233.808594zm0 0" fill="#82d9ff"/><path d="m218.652344 469.367188c-51.71875 0-100.960938-17.921876-140.960938-51.746094-46.460937-39.296875-74.710937-96.519532-77.496094-156.984375-.1679682-3.679688 1.160157-7.191407 3.730469-9.886719 2.605469-2.726562 6.261719-4.296875 10.039063-4.296875 7.59375 0 13.632812 5.855469 13.992187 13.335937 2.511719 51.929688 25.503907 99.5625 64.726563 134.113282 39.136718 34.457031 89.394531 51.175781 141.546875 47.078125 90.796875-7.132813 165.957031-80.789063 174.832031-171.351563 9.71875-99.125-56.671875-187.480468-152.800781-206.4375l3.984375 3.984375c2.625 2.621094 4.070312 6.109375 4.070312 9.8125 0 3.707031-1.445312 7.195313-4.070312 9.816407-5.226563 5.25-14.394532 5.257812-19.632813 0l-31.558593-31.550782c-5.417969-5.40625-5.417969-14.214844 0-19.640625l31.558593-31.550781c5.414063-5.425781 14.230469-5.410156 19.632813 0 5.414062 5.414062 5.414062 14.214844 0 19.632812l-10.097656 10.09375c114.128906 16.410157 197.304687 121.039063 186.6875 237.128907-9.445313 103.382812-87.886719 184.304687-190.765626 196.785156-9.191406 1.109375-18.335937 1.664063-27.417968 1.664063zm-204.445313-214.914063c-1.832031 0-3.394531.664063-4.496093 1.824219-1.058594 1.097656-1.59375 2.519531-1.53125 4 2.691406 58.257812 29.90625 113.375 74.679687 151.25 45.289063 38.3125 102.9375 55.480468 162.242187 48.238281 99.105469-12.03125 174.679688-89.984375 183.769532-189.574219 10.460937-114.53125-73.769532-217.464844-187.769532-229.472656-1.527343-.160156-2.832031-1.183594-3.351562-2.640625s-.152344-3.070313.941406-4.167969l15.890625-15.886718c2.296875-2.296876 2.296875-6.027344 0-8.320313-2.304687-2.304687-6.03125-2.296875-8.320312 0l-31.558594 31.550781c-2.289063 2.296875-2.296875 6.03125 0 8.328125l31.558594 31.550781c2.222656 2.242188 6.113281 2.226563 8.320312 0 2.296875-2.292968 2.296875-6.023437 0-8.320312l-12.785156-12.773438c-1.207031-1.210937-1.511719-3.066406-.757813-4.601562.75-1.535156 2.453126-2.398438 4.109376-2.191406 106.914062 14.199218 182.410156 109.582031 171.863281 217.160156-9.230469 94.367188-87.542969 171.121094-182.160157 178.542969-54.300781 4.28125-106.695312-13.152344-147.460937-49.054688-40.867187-35.992187-64.816406-85.617187-67.425781-139.71875-.152344-3.210937-2.679688-5.722656-5.757813-5.722656zm0 0" fill="#63312d"/></svg>